<svg width="14" height="14" viewBox="0 0 14 14" fill="none" xmlns="http://www.w3.org/2000/svg">
<rect x="1.29724" y="12.7051" width="1.29724" height="1.29724" transform="rotate(90 1.29724 12.7051)" fill="black"/>
<rect x="3.41321" y="10.5859" width="1.29724" height="1.29724" transform="rotate(90 3.41321 10.5859)" fill="black"/>
<rect x="5.53101" y="8.46875" width="1.29724" height="1.29724" transform="rotate(90 5.53101 8.46875)" fill="black"/>
<rect x="7.64856" y="6.35156" width="1.29724" height="1.29724" transform="rotate(90 7.64856 6.35156)" fill="black"/>
<rect x="9.76636" y="4.23438" width="1.29724" height="1.29724" transform="rotate(90 9.76636 4.23438)" fill="black"/>
<rect x="11.884" y="2.11914" width="1.29724" height="1.29724" transform="rotate(90 11.884 2.11914)" fill="black"/>
<rect x="14" width="1.29724" height="1.29724" transform="rotate(90 14 0)" fill="black"/>
<rect width="1.29724" height="1.29724" transform="matrix(0 1 1 -4.37114e-08 12.7028 12.7051)" fill="black"/>
<rect width="1.29724" height="1.29724" transform="matrix(0 1 1 -4.37114e-08 10.5868 10.5859)" fill="black"/>
<rect width="1.29724" height="1.29724" transform="matrix(0 1 1 -4.37114e-08 8.46899 8.46875)" fill="black"/>
<rect width="1.29724" height="1.29724" transform="matrix(0 1 1 -4.37114e-08 4.23364 4.23438)" fill="black"/>
<rect width="1.29724" height="1.29724" transform="matrix(0 1 1 -4.37114e-08 2.11597 2.11914)" fill="black"/>
<rect width="1.29724" height="1.29724" transform="matrix(0 1 1 -4.37114e-08 0 0)" fill="black"/>
</svg>
