<svg width="14" height="14" viewBox="0 0 14 14" fill="none" xmlns="http://www.w3.org/2000/svg">
<g clip-path="url(#clip0_4007_26395)">
<rect y="6.34375" width="1.31429" height="1.31429" fill="black"/>
<rect x="2.11426" y="6.34375" width="1.31429" height="1.31429" fill="black"/>
<rect x="4.22852" y="6.34375" width="1.31429" height="1.31429" fill="black"/>
<rect x="6.3429" y="6.34375" width="1.31429" height="1.31429" fill="black"/>
<rect x="8.45715" y="6.34375" width="1.31429" height="1.31429" fill="black"/>
<rect x="10.5714" y="6.34375" width="1.31429" height="1.31429" fill="black"/>
<rect x="12.6857" y="6.34375" width="1.31429" height="1.31429" fill="black"/>
<rect x="7.6571" width="1.31429" height="1.31429" transform="rotate(90 7.6571 0)" fill="black"/>
<rect x="7.6571" y="2.11523" width="1.31429" height="1.31429" transform="rotate(90 7.6571 2.11523)" fill="black"/>
<rect x="7.6571" y="4.22852" width="1.31429" height="1.31429" transform="rotate(90 7.6571 4.22852)" fill="black"/>
<rect x="7.6571" y="8.45703" width="1.31429" height="1.31429" transform="rotate(90 7.6571 8.45703)" fill="black"/>
<rect x="7.6571" y="10.5723" width="1.31429" height="1.31429" transform="rotate(90 7.6571 10.5723)" fill="black"/>
<rect x="7.6571" y="12.6855" width="1.31429" height="1.31429" transform="rotate(90 7.6571 12.6855)" fill="black"/>
</g>
<defs>
<clipPath id="clip0_4007_26395">
<rect width="14" height="14" fill="white"/>
</clipPath>
</defs>
</svg>
