<svg width="60" height="60" viewBox="0 0 60 60" fill="none" xmlns="http://www.w3.org/2000/svg">
<g clip-path="url(#clip0_4021_1610)">
<path d="M0 6C0 2.68629 2.68629 0 6 0H54C57.3137 0 60 2.68629 60 6V54C60 57.3137 57.3137 60 54 60H6C2.68629 60 0 57.3137 0 54V6Z" fill="white"/>
<path d="M39.5318 18.0001H41.5265C41.5494 18.0001 41.5609 18.0001 41.5609 18.0001C41.5609 18.0001 41.5609 18.0122 41.5609 18.0364V20.1455C41.5609 20.1698 41.5609 20.1819 41.5609 20.1819C41.5609 20.1819 41.5494 20.1819 41.5265 20.1819H39.5318C39.5088 20.1819 39.4974 20.1819 39.4974 20.1819C39.4974 20.1819 39.4974 20.1698 39.4974 20.1455V18.0364C39.4974 18.0122 39.4974 18.0001 39.4974 18.0001C39.4974 18.0001 39.5088 18.0001 39.5318 18.0001ZM39.5318 21.6364H41.5265C41.5494 21.6364 41.5609 21.6364 41.5609 21.6364C41.5609 21.6364 41.5609 21.6485 41.5609 21.6728V23.7819C41.5609 23.8061 41.5609 23.8182 41.5609 23.8182C41.5609 23.8182 41.5494 23.8182 41.5265 23.8182H39.5318C39.5088 23.8182 39.4974 23.8182 39.4974 23.8182C39.4974 23.8182 39.4974 23.8061 39.4974 23.7819V21.6728C39.4974 21.6485 39.4974 21.6364 39.4974 21.6364C39.4974 21.6364 39.5088 21.6364 39.5318 21.6364ZM39.5318 25.2728H41.5265C41.5494 25.2728 41.5609 25.2728 41.5609 25.2728C41.5609 25.2728 41.5609 25.2849 41.5609 25.3091V27.4182C41.5609 27.4425 41.5609 27.4546 41.5609 27.4546C41.5609 27.4546 41.5494 27.4546 41.5265 27.4546H39.5318C39.5088 27.4546 39.4974 27.4546 39.4974 27.4546C39.4974 27.4546 39.4974 27.4425 39.4974 27.4182V25.3091C39.4974 25.2849 39.4974 25.2728 39.4974 25.2728C39.4974 25.2728 39.5088 25.2728 39.5318 25.2728ZM42.9709 25.2728H44.9656C44.9885 25.2728 45 25.2728 45 25.2728C45 25.2728 45 25.2849 45 25.3091V27.4182C45 27.4425 45 27.4546 45 27.4546C45 27.4546 44.9885 27.4546 44.9656 27.4546H42.9709C42.948 27.4546 42.9365 27.4546 42.9365 27.4546C42.9365 27.4546 42.9365 27.4425 42.9365 27.4182V25.3091C42.9365 25.2849 42.9365 25.2728 42.9365 25.2728C42.9365 25.2728 42.948 25.2728 42.9709 25.2728ZM36.0926 28.9091H38.0873C38.1102 28.9091 38.1217 28.9091 38.1217 28.9091C38.1217 28.9091 38.1217 28.9212 38.1217 28.9455V31.0546C38.1217 31.0788 38.1217 31.0909 38.1217 31.0909C38.1217 31.0909 38.1102 31.0909 38.0873 31.0909H36.0926C36.0697 31.0909 36.0582 31.0909 36.0582 31.0909C36.0582 31.0909 36.0582 31.0788 36.0582 31.0546V28.9455C36.0582 28.9212 36.0582 28.9091 36.0582 28.9091C36.0582 28.9091 36.0697 28.9091 36.0926 28.9091ZM39.5318 28.9091H41.5265C41.5494 28.9091 41.5609 28.9091 41.5609 28.9091C41.5609 28.9091 41.5609 28.9212 41.5609 28.9455V31.0546C41.5609 31.0788 41.5609 31.0909 41.5609 31.0909C41.5609 31.0909 41.5494 31.0909 41.5265 31.0909H39.5318C39.5088 31.0909 39.4974 31.0909 39.4974 31.0909C39.4974 31.0909 39.4974 31.0788 39.4974 31.0546V28.9455C39.4974 28.9212 39.4974 28.9091 39.4974 28.9091C39.4974 28.9091 39.5088 28.9091 39.5318 28.9091ZM39.5318 32.5455H41.5265C41.5494 32.5455 41.5609 32.5455 41.5609 32.5455C41.5609 32.5455 41.5609 32.5576 41.5609 32.5818V34.6909C41.5609 34.7152 41.5609 34.7273 41.5609 34.7273C41.5609 34.7273 41.5494 34.7273 41.5265 34.7273H39.5318C39.5088 34.7273 39.4974 34.7273 39.4974 34.7273C39.4974 34.7273 39.4974 34.7152 39.4974 34.6909V32.5818C39.4974 32.5576 39.4974 32.5455 39.4974 32.5455C39.4974 32.5455 39.5088 32.5455 39.5318 32.5455ZM39.5318 36.1818H41.5265C41.5494 36.1818 41.5609 36.1818 41.5609 36.1818C41.5609 36.1818 41.5609 36.194 41.5609 36.2182V38.3273C41.5609 38.3515 41.5609 38.3636 41.5609 38.3636C41.5609 38.3636 41.5494 38.3636 41.5265 38.3636H39.5318C39.5088 38.3636 39.4974 38.3636 39.4974 38.3636C39.4974 38.3636 39.4974 38.3515 39.4974 38.3273V36.2182C39.4974 36.194 39.4974 36.1818 39.4974 36.1818C39.4974 36.1818 39.5088 36.1818 39.5318 36.1818ZM39.5318 39.8182H41.5265C41.5494 39.8182 41.5609 39.8182 41.5609 39.8182C41.5609 39.8182 41.5609 39.8303 41.5609 39.8546V41.9636C41.5609 41.9879 41.5609 42 41.5609 42C41.5609 42 41.5494 42 41.5265 42H39.5318C39.5088 42 39.4974 42 39.4974 42C39.4974 42 39.4974 41.9879 39.4974 41.9636V39.8546C39.4974 39.8303 39.4974 39.8182 39.4974 39.8182C39.4974 39.8182 39.5088 39.8182 39.5318 39.8182Z" fill="black"/>
<path d="M17.0344 18H19.0291C19.052 18 19.0635 18 19.0635 18C19.0635 18 19.0635 18.0121 19.0635 18.0364V20.1454C19.0635 20.1697 19.0635 20.1818 19.0635 20.1818C19.0635 20.1818 19.052 20.1818 19.0291 20.1818H17.0344C17.0115 20.1818 17 20.1818 17 20.1818C17 20.1818 17 20.1697 17 20.1454V18.0364C17 18.0121 17 18 17 18C17 18 17.0115 18 17.0344 18ZM20.4735 18H22.4682C22.4912 18 22.5026 18 22.5026 18C22.5026 18 22.5026 18.0121 22.5026 18.0364V20.1454C22.5026 20.1697 22.5026 20.1818 22.5026 20.1818C22.5026 20.1818 22.4912 20.1818 22.4682 20.1818H20.4735C20.4506 20.1818 20.4391 20.1818 20.4391 20.1818C20.4391 20.1818 20.4391 20.1697 20.4391 20.1454V18.0364C20.4391 18.0121 20.4391 18 20.4391 18C20.4391 18 20.4506 18 20.4735 18ZM23.9127 18H25.9074C25.9303 18 25.9418 18 25.9418 18C25.9418 18 25.9418 18.0121 25.9418 18.0364V20.1454C25.9418 20.1697 25.9418 20.1818 25.9418 20.1818C25.9418 20.1818 25.9303 20.1818 25.9074 20.1818H23.9127C23.8898 20.1818 23.8783 20.1818 23.8783 20.1818C23.8783 20.1818 23.8783 20.1697 23.8783 20.1454V18.0364C23.8783 18.0121 23.8783 18 23.8783 18C23.8783 18 23.8898 18 23.9127 18ZM27.3518 18H29.3465C29.3695 18 29.3809 18 29.3809 18C29.3809 18 29.3809 18.0121 29.3809 18.0364V20.1454C29.3809 20.1697 29.3809 20.1818 29.3809 20.1818C29.3809 20.1818 29.3695 20.1818 29.3465 20.1818H27.3518C27.3289 20.1818 27.3174 20.1818 27.3174 20.1818C27.3174 20.1818 27.3174 20.1697 27.3174 20.1454V18.0364C27.3174 18.0121 27.3174 18 27.3174 18C27.3174 18 27.3289 18 27.3518 18ZM30.791 18H32.7857C32.8086 18 32.8201 18 32.8201 18C32.8201 18 32.8201 18.0121 32.8201 18.0364V20.1454C32.8201 20.1697 32.8201 20.1818 32.8201 20.1818C32.8201 20.1818 32.8086 20.1818 32.7857 20.1818H30.791C30.7681 20.1818 30.7566 20.1818 30.7566 20.1818C30.7566 20.1818 30.7566 20.1697 30.7566 20.1454V18.0364C30.7566 18.0121 30.7566 18 30.7566 18C30.7566 18 30.7681 18 30.791 18ZM30.791 21.6364H32.7857C32.8086 21.6364 32.8201 21.6364 32.8201 21.6364C32.8201 21.6364 32.8201 21.6485 32.8201 21.6727V23.7818C32.8201 23.806 32.8201 23.8182 32.8201 23.8182C32.8201 23.8182 32.8086 23.8182 32.7857 23.8182H30.791C30.7681 23.8182 30.7566 23.8182 30.7566 23.8182C30.7566 23.8182 30.7566 23.806 30.7566 23.7818V21.6727C30.7566 21.6485 30.7566 21.6364 30.7566 21.6364C30.7566 21.6364 30.7681 21.6364 30.791 21.6364ZM27.3518 25.2727H29.3465C29.3695 25.2727 29.3809 25.2727 29.3809 25.2727C29.3809 25.2727 29.3809 25.2848 29.3809 25.3091V27.4182C29.3809 27.4424 29.3809 27.4545 29.3809 27.4545C29.3809 27.4545 29.3695 27.4545 29.3465 27.4545H27.3518C27.3289 27.4545 27.3174 27.4545 27.3174 27.4545C27.3174 27.4545 27.3174 27.4424 27.3174 27.4182V25.3091C27.3174 25.2848 27.3174 25.2727 27.3174 25.2727C27.3174 25.2727 27.3289 25.2727 27.3518 25.2727ZM23.9127 28.9091H25.9074C25.9303 28.9091 25.9418 28.9091 25.9418 28.9091C25.9418 28.9091 25.9418 28.9212 25.9418 28.9454V31.0545C25.9418 31.0788 25.9418 31.0909 25.9418 31.0909C25.9418 31.0909 25.9303 31.0909 25.9074 31.0909H23.9127C23.8898 31.0909 23.8783 31.0909 23.8783 31.0909C23.8783 31.0909 23.8783 31.0788 23.8783 31.0545V28.9454C23.8783 28.9212 23.8783 28.9091 23.8783 28.9091C23.8783 28.9091 23.8898 28.9091 23.9127 28.9091ZM20.4735 32.5454H22.4682C22.4912 32.5454 22.5026 32.5454 22.5026 32.5454C22.5026 32.5454 22.5026 32.5575 22.5026 32.5818V34.6909C22.5026 34.7151 22.5026 34.7272 22.5026 34.7272C22.5026 34.7272 22.4912 34.7272 22.4682 34.7272H20.4735C20.4506 34.7272 20.4391 34.7272 20.4391 34.7272C20.4391 34.7272 20.4391 34.7151 20.4391 34.6909V32.5818C20.4391 32.5575 20.4391 32.5454 20.4391 32.5454C20.4391 32.5454 20.4506 32.5454 20.4735 32.5454ZM17.0344 36.1818H19.0291C19.052 36.1818 19.0635 36.1818 19.0635 36.1818C19.0635 36.1818 19.0635 36.1939 19.0635 36.2181V38.3272C19.0635 38.3515 19.0635 38.3636 19.0635 38.3636C19.0635 38.3636 19.052 38.3636 19.0291 38.3636H17.0344C17.0115 38.3636 17 38.3636 17 38.3636C17 38.3636 17 38.3515 17 38.3272V36.2181C17 36.1939 17 36.1818 17 36.1818C17 36.1818 17.0115 36.1818 17.0344 36.1818ZM17.0344 39.8181H19.0291C19.052 39.8181 19.0635 39.8181 19.0635 39.8181C19.0635 39.8181 19.0635 39.8302 19.0635 39.8545V41.9636C19.0635 41.9878 19.0635 41.9999 19.0635 41.9999C19.0635 41.9999 19.052 41.9999 19.0291 41.9999H17.0344C17.0115 41.9999 17 41.9999 17 41.9999C17 41.9999 17 41.9878 17 41.9636V39.8545C17 39.8302 17 39.8181 17 39.8181C17 39.8181 17.0115 39.8181 17.0344 39.8181ZM20.4735 39.8181H22.4682C22.4912 39.8181 22.5026 39.8181 22.5026 39.8181C22.5026 39.8181 22.5026 39.8302 22.5026 39.8545V41.9636C22.5026 41.9878 22.5026 41.9999 22.5026 41.9999C22.5026 41.9999 22.4912 41.9999 22.4682 41.9999H20.4735C20.4506 41.9999 20.4391 41.9999 20.4391 41.9999C20.4391 41.9999 20.4391 41.9878 20.4391 41.9636V39.8545C20.4391 39.8302 20.4391 39.8181 20.4391 39.8181C20.4391 39.8181 20.4506 39.8181 20.4735 39.8181ZM23.9127 39.8181H25.9074C25.9303 39.8181 25.9418 39.8181 25.9418 39.8181C25.9418 39.8181 25.9418 39.8302 25.9418 39.8545V41.9636C25.9418 41.9878 25.9418 41.9999 25.9418 41.9999C25.9418 41.9999 25.9303 41.9999 25.9074 41.9999H23.9127C23.8898 41.9999 23.8783 41.9999 23.8783 41.9999C23.8783 41.9999 23.8783 41.9878 23.8783 41.9636V39.8545C23.8783 39.8302 23.8783 39.8181 23.8783 39.8181C23.8783 39.8181 23.8898 39.8181 23.9127 39.8181ZM27.3518 39.8181H29.3465C29.3695 39.8181 29.3809 39.8181 29.3809 39.8181C29.3809 39.8181 29.3809 39.8302 29.3809 39.8545V41.9636C29.3809 41.9878 29.3809 41.9999 29.3809 41.9999C29.3809 41.9999 29.3695 41.9999 29.3465 41.9999H27.3518C27.3289 41.9999 27.3174 41.9999 27.3174 41.9999C27.3174 41.9999 27.3174 41.9878 27.3174 41.9636V39.8545C27.3174 39.8302 27.3174 39.8181 27.3174 39.8181C27.3174 39.8181 27.3289 39.8181 27.3518 39.8181ZM30.791 39.8181H32.7857C32.8086 39.8181 32.8201 39.8181 32.8201 39.8181C32.8201 39.8181 32.8201 39.8302 32.8201 39.8545V41.9636C32.8201 41.9878 32.8201 41.9999 32.8201 41.9999C32.8201 41.9999 32.8086 41.9999 32.7857 41.9999H30.791C30.7681 41.9999 30.7566 41.9999 30.7566 41.9999C30.7566 41.9999 30.7566 41.9878 30.7566 41.9636V39.8545C30.7566 39.8302 30.7566 39.8181 30.7566 39.8181C30.7566 39.8181 30.7681 39.8181 30.791 39.8181Z" fill="black"/>
</g>
<defs>
<clipPath id="clip0_4021_1610">
<rect width="60" height="60" fill="white"/>
</clipPath>
</defs>
</svg>
