<svg width="60" height="60" viewBox="0 0 60 60" fill="none" xmlns="http://www.w3.org/2000/svg">
<g clip-path="url(#clip0_4007_26336)">
<path d="M0 6C0 2.68629 2.68629 0 6 0H54C57.3137 0 60 2.68629 60 6V54C60 57.3137 57.3137 60 54 60H6C2.68629 60 0 57.3137 0 54V6Z" fill="white"/>
<path d="M27.8842 13.0352H29.0482C29.0616 13.0352 29.0683 13.0352 29.0683 13.0352C29.0683 13.0352 29.0683 13.0419 29.0683 13.0553V14.2193C29.0683 14.2327 29.0683 14.2394 29.0683 14.2394C29.0683 14.2394 29.0616 14.2394 29.0482 14.2394H27.8842C27.8708 14.2394 27.8641 14.2394 27.8641 14.2394C27.8641 14.2394 27.8641 14.2327 27.8641 14.2193V13.0553C27.8641 13.0419 27.8641 13.0352 27.8641 13.0352C27.8641 13.0352 27.8708 13.0352 27.8842 13.0352ZM27.8842 15.0422H29.0482C29.0616 15.0422 29.0683 15.0422 29.0683 15.0422C29.0683 15.0422 29.0683 15.0489 29.0683 15.0623V16.2263C29.0683 16.2397 29.0683 16.2464 29.0683 16.2464C29.0683 16.2464 29.0616 16.2464 29.0482 16.2464H27.8842C27.8708 16.2464 27.8641 16.2464 27.8641 16.2464C27.8641 16.2464 27.8641 16.2397 27.8641 16.2263V15.0623C27.8641 15.0489 27.8641 15.0422 27.8641 15.0422C27.8641 15.0422 27.8708 15.0422 27.8842 15.0422ZM27.8842 17.0492H29.0482C29.0616 17.0492 29.0683 17.0492 29.0683 17.0492C29.0683 17.0492 29.0683 17.0559 29.0683 17.0693V18.2334C29.0683 18.2467 29.0683 18.2534 29.0683 18.2534C29.0683 18.2534 29.0616 18.2534 29.0482 18.2534H27.8842C27.8708 18.2534 27.8641 18.2534 27.8641 18.2534C27.8641 18.2534 27.8641 18.2467 27.8641 18.2334V17.0693C27.8641 17.0559 27.8641 17.0492 27.8641 17.0492C27.8641 17.0492 27.8708 17.0492 27.8842 17.0492ZM29.8912 17.0492H31.0552C31.0686 17.0492 31.0753 17.0492 31.0753 17.0492C31.0753 17.0492 31.0753 17.0559 31.0753 17.0693V18.2334C31.0753 18.2467 31.0753 18.2534 31.0753 18.2534C31.0753 18.2534 31.0686 18.2534 31.0552 18.2534H29.8912C29.8778 18.2534 29.8711 18.2534 29.8711 18.2534C29.8711 18.2534 29.8711 18.2467 29.8711 18.2334V17.0693C29.8711 17.0559 29.8711 17.0492 29.8711 17.0492C29.8711 17.0492 29.8778 17.0492 29.8912 17.0492ZM25.8771 19.0562H27.0412C27.0546 19.0562 27.0613 19.0562 27.0613 19.0562C27.0613 19.0562 27.0613 19.0629 27.0613 19.0763V20.2404C27.0613 20.2538 27.0613 20.2604 27.0613 20.2604C27.0613 20.2604 27.0546 20.2604 27.0412 20.2604H25.8771C25.8638 20.2604 25.8571 20.2604 25.8571 20.2604C25.8571 20.2604 25.8571 20.2538 25.8571 20.2404V19.0763C25.8571 19.0629 25.8571 19.0562 25.8571 19.0562C25.8571 19.0562 25.8638 19.0562 25.8771 19.0562ZM27.8842 19.0562H29.0482C29.0616 19.0562 29.0683 19.0562 29.0683 19.0562C29.0683 19.0562 29.0683 19.0629 29.0683 19.0763V20.2404C29.0683 20.2538 29.0683 20.2604 29.0683 20.2604C29.0683 20.2604 29.0616 20.2604 29.0482 20.2604H27.8842C27.8708 20.2604 27.8641 20.2604 27.8641 20.2604C27.8641 20.2604 27.8641 20.2538 27.8641 20.2404V19.0763C27.8641 19.0629 27.8641 19.0562 27.8641 19.0562C27.8641 19.0562 27.8708 19.0562 27.8842 19.0562ZM27.8842 21.0633H29.0482C29.0616 21.0633 29.0683 21.0633 29.0683 21.0633C29.0683 21.0633 29.0683 21.0699 29.0683 21.0833V22.2474C29.0683 22.2608 29.0683 22.2675 29.0683 22.2675C29.0683 22.2675 29.0616 22.2675 29.0482 22.2675H27.8842C27.8708 22.2675 27.8641 22.2675 27.8641 22.2675C27.8641 22.2675 27.8641 22.2608 27.8641 22.2474V21.0833C27.8641 21.0699 27.8641 21.0633 27.8641 21.0633C27.8641 21.0633 27.8708 21.0633 27.8842 21.0633ZM27.8842 23.0703H29.0482C29.0616 23.0703 29.0683 23.0703 29.0683 23.0703C29.0683 23.0703 29.0683 23.077 29.0683 23.0903V24.2544C29.0683 24.2678 29.0683 24.2745 29.0683 24.2745C29.0683 24.2745 29.0616 24.2745 29.0482 24.2745H27.8842C27.8708 24.2745 27.8641 24.2745 27.8641 24.2745C27.8641 24.2745 27.8641 24.2678 27.8641 24.2544V23.0903C27.8641 23.077 27.8641 23.0703 27.8641 23.0703C27.8641 23.0703 27.8708 23.0703 27.8842 23.0703ZM27.8842 25.0773H29.0482C29.0616 25.0773 29.0683 25.0773 29.0683 25.0773C29.0683 25.0773 29.0683 25.084 29.0683 25.0974V26.2614C29.0683 26.2748 29.0683 26.2815 29.0683 26.2815C29.0683 26.2815 29.0616 26.2815 29.0482 26.2815H27.8842C27.8708 26.2815 27.8641 26.2815 27.8641 26.2815C27.8641 26.2815 27.8641 26.2748 27.8641 26.2614V25.0974C27.8641 25.084 27.8641 25.0773 27.8641 25.0773C27.8641 25.0773 27.8708 25.0773 27.8842 25.0773Z" fill="black"/>
<path d="M14.7552 13.0352H15.9192C15.9326 13.0352 15.9393 13.0352 15.9393 13.0352C15.9393 13.0352 15.9393 13.0418 15.9393 13.0552V14.2193C15.9393 14.2327 15.9393 14.2394 15.9393 14.2394C15.9393 14.2394 15.9326 14.2394 15.9192 14.2394H14.7552C14.7418 14.2394 14.7351 14.2394 14.7351 14.2394C14.7351 14.2394 14.7351 14.2327 14.7351 14.2193V13.0552C14.7351 13.0418 14.7351 13.0352 14.7351 13.0352C14.7351 13.0352 14.7418 13.0352 14.7552 13.0352ZM16.7622 13.0352H17.9263C17.9396 13.0352 17.9463 13.0352 17.9463 13.0352C17.9463 13.0352 17.9463 13.0418 17.9463 13.0552V14.2193C17.9463 14.2327 17.9463 14.2394 17.9463 14.2394C17.9463 14.2394 17.9396 14.2394 17.9263 14.2394H16.7622C16.7488 14.2394 16.7421 14.2394 16.7421 14.2394C16.7421 14.2394 16.7421 14.2327 16.7421 14.2193V13.0552C16.7421 13.0418 16.7421 13.0352 16.7421 13.0352C16.7421 13.0352 16.7488 13.0352 16.7622 13.0352ZM18.7692 13.0352H19.9333C19.9467 13.0352 19.9533 13.0352 19.9533 13.0352C19.9533 13.0352 19.9533 13.0418 19.9533 13.0552V14.2193C19.9533 14.2327 19.9533 14.2394 19.9533 14.2394C19.9533 14.2394 19.9467 14.2394 19.9333 14.2394H18.7692C18.7558 14.2394 18.7491 14.2394 18.7491 14.2394C18.7491 14.2394 18.7491 14.2327 18.7491 14.2193V13.0552C18.7491 13.0418 18.7491 13.0352 18.7491 13.0352C18.7491 13.0352 18.7558 13.0352 18.7692 13.0352ZM20.7762 13.0352H21.9403C21.9537 13.0352 21.9604 13.0352 21.9604 13.0352C21.9604 13.0352 21.9604 13.0418 21.9604 13.0552V14.2193C21.9604 14.2327 21.9604 14.2394 21.9604 14.2394C21.9604 14.2394 21.9537 14.2394 21.9403 14.2394H20.7762C20.7628 14.2394 20.7562 14.2394 20.7562 14.2394C20.7562 14.2394 20.7562 14.2327 20.7562 14.2193V13.0552C20.7562 13.0418 20.7562 13.0352 20.7562 13.0352C20.7562 13.0352 20.7628 13.0352 20.7762 13.0352ZM22.7832 13.0352H23.9473C23.9607 13.0352 23.9674 13.0352 23.9674 13.0352C23.9674 13.0352 23.9674 13.0418 23.9674 13.0552V14.2193C23.9674 14.2327 23.9674 14.2394 23.9674 14.2394C23.9674 14.2394 23.9607 14.2394 23.9473 14.2394H22.7832C22.7699 14.2394 22.7632 14.2394 22.7632 14.2394C22.7632 14.2394 22.7632 14.2327 22.7632 14.2193V13.0552C22.7632 13.0418 22.7632 13.0352 22.7632 13.0352C22.7632 13.0352 22.7699 13.0352 22.7832 13.0352ZM22.7832 15.0422H23.9473C23.9607 15.0422 23.9674 15.0422 23.9674 15.0422C23.9674 15.0422 23.9674 15.0489 23.9674 15.0622V16.2263C23.9674 16.2397 23.9674 16.2464 23.9674 16.2464C23.9674 16.2464 23.9607 16.2464 23.9473 16.2464H22.7832C22.7699 16.2464 22.7632 16.2464 22.7632 16.2464C22.7632 16.2464 22.7632 16.2397 22.7632 16.2263V15.0622C22.7632 15.0489 22.7632 15.0422 22.7632 15.0422C22.7632 15.0422 22.7699 15.0422 22.7832 15.0422ZM20.7762 17.0492H21.9403C21.9537 17.0492 21.9604 17.0492 21.9604 17.0492C21.9604 17.0492 21.9604 17.0559 21.9604 17.0693V18.2333C21.9604 18.2467 21.9604 18.2534 21.9604 18.2534C21.9604 18.2534 21.9537 18.2534 21.9403 18.2534H20.7762C20.7628 18.2534 20.7562 18.2534 20.7562 18.2534C20.7562 18.2534 20.7562 18.2467 20.7562 18.2333V17.0693C20.7562 17.0559 20.7562 17.0492 20.7562 17.0492C20.7562 17.0492 20.7628 17.0492 20.7762 17.0492ZM18.7692 19.0562H19.9333C19.9467 19.0562 19.9533 19.0562 19.9533 19.0562C19.9533 19.0562 19.9533 19.0629 19.9533 19.0763V20.2403C19.9533 20.2537 19.9533 20.2604 19.9533 20.2604C19.9533 20.2604 19.9467 20.2604 19.9333 20.2604H18.7692C18.7558 20.2604 18.7491 20.2604 18.7491 20.2604C18.7491 20.2604 18.7491 20.2537 18.7491 20.2403V19.0763C18.7491 19.0629 18.7491 19.0562 18.7491 19.0562C18.7491 19.0562 18.7558 19.0562 18.7692 19.0562ZM16.7622 21.0632H17.9263C17.9396 21.0632 17.9463 21.0632 17.9463 21.0632C17.9463 21.0632 17.9463 21.0699 17.9463 21.0833V22.2474C17.9463 22.2607 17.9463 22.2674 17.9463 22.2674C17.9463 22.2674 17.9396 22.2674 17.9263 22.2674H16.7622C16.7488 22.2674 16.7421 22.2674 16.7421 22.2674C16.7421 22.2674 16.7421 22.2607 16.7421 22.2474V21.0833C16.7421 21.0699 16.7421 21.0632 16.7421 21.0632C16.7421 21.0632 16.7488 21.0632 16.7622 21.0632ZM14.7552 23.0702H15.9192C15.9326 23.0702 15.9393 23.0702 15.9393 23.0702C15.9393 23.0702 15.9393 23.0769 15.9393 23.0903V24.2544C15.9393 24.2678 15.9393 24.2744 15.9393 24.2744C15.9393 24.2744 15.9326 24.2744 15.9192 24.2744H14.7552C14.7418 24.2744 14.7351 24.2744 14.7351 24.2744C14.7351 24.2744 14.7351 24.2678 14.7351 24.2544V23.0903C14.7351 23.0769 14.7351 23.0702 14.7351 23.0702C14.7351 23.0702 14.7418 23.0702 14.7552 23.0702ZM14.7552 25.0772H15.9192C15.9326 25.0772 15.9393 25.0772 15.9393 25.0772C15.9393 25.0772 15.9393 25.0839 15.9393 25.0973V26.2614C15.9393 26.2748 15.9393 26.2815 15.9393 26.2815C15.9393 26.2815 15.9326 26.2815 15.9192 26.2815H14.7552C14.7418 26.2815 14.7351 26.2815 14.7351 26.2815C14.7351 26.2815 14.7351 26.2748 14.7351 26.2614V25.0973C14.7351 25.0839 14.7351 25.0772 14.7351 25.0772C14.7351 25.0772 14.7418 25.0772 14.7552 25.0772ZM16.7622 25.0772H17.9263C17.9396 25.0772 17.9463 25.0772 17.9463 25.0772C17.9463 25.0772 17.9463 25.0839 17.9463 25.0973V26.2614C17.9463 26.2748 17.9463 26.2815 17.9463 26.2815C17.9463 26.2815 17.9396 26.2815 17.9263 26.2815H16.7622C16.7488 26.2815 16.7421 26.2815 16.7421 26.2815C16.7421 26.2815 16.7421 26.2748 16.7421 26.2614V25.0973C16.7421 25.0839 16.7421 25.0772 16.7421 25.0772C16.7421 25.0772 16.7488 25.0772 16.7622 25.0772ZM18.7692 25.0772H19.9333C19.9467 25.0772 19.9533 25.0772 19.9533 25.0772C19.9533 25.0772 19.9533 25.0839 19.9533 25.0973V26.2614C19.9533 26.2748 19.9533 26.2815 19.9533 26.2815C19.9533 26.2815 19.9467 26.2815 19.9333 26.2815H18.7692C18.7558 26.2815 18.7491 26.2815 18.7491 26.2815C18.7491 26.2815 18.7491 26.2748 18.7491 26.2614V25.0973C18.7491 25.0839 18.7491 25.0772 18.7491 25.0772C18.7491 25.0772 18.7558 25.0772 18.7692 25.0772ZM20.7762 25.0772H21.9403C21.9537 25.0772 21.9604 25.0772 21.9604 25.0772C21.9604 25.0772 21.9604 25.0839 21.9604 25.0973V26.2614C21.9604 26.2748 21.9604 26.2815 21.9604 26.2815C21.9604 26.2815 21.9537 26.2815 21.9403 26.2815H20.7762C20.7628 26.2815 20.7562 26.2815 20.7562 26.2815C20.7562 26.2815 20.7562 26.2748 20.7562 26.2614V25.0973C20.7562 25.0839 20.7562 25.0772 20.7562 25.0772C20.7562 25.0772 20.7628 25.0772 20.7762 25.0772ZM22.7832 25.0772H23.9473C23.9607 25.0772 23.9674 25.0772 23.9674 25.0772C23.9674 25.0772 23.9674 25.0839 23.9674 25.0973V26.2614C23.9674 26.2748 23.9674 26.2815 23.9674 26.2815C23.9674 26.2815 23.9607 26.2815 23.9473 26.2815H22.7832C22.7699 26.2815 22.7632 26.2815 22.7632 26.2815C22.7632 26.2815 22.7632 26.2748 22.7632 26.2614V25.0973C22.7632 25.0839 22.7632 25.0772 22.7632 25.0772C22.7632 25.0772 22.7699 25.0772 22.7832 25.0772Z" fill="black"/>
<path opacity="0.4" d="M41.915 13.0391H43.191C43.2056 13.0391 43.213 13.0391 43.213 13.0391C43.213 13.0391 43.213 13.0464 43.213 13.0611V14.3371C43.213 14.3517 43.213 14.3591 43.213 14.3591C43.213 14.3591 43.2056 14.3591 43.191 14.3591H41.915C41.9003 14.3591 41.893 14.3591 41.893 14.3591C41.893 14.3591 41.893 14.3517 41.893 14.3371V13.0611C41.893 13.0464 41.893 13.0391 41.893 13.0391C41.893 13.0391 41.9003 13.0391 41.915 13.0391ZM39.715 15.2391H40.991C41.0056 15.2391 41.013 15.2391 41.013 15.2391C41.013 15.2391 41.013 15.2464 41.013 15.2611V16.5371C41.013 16.5517 41.013 16.5591 41.013 16.5591C41.013 16.5591 41.0056 16.5591 40.991 16.5591H39.715C39.7003 16.5591 39.693 16.5591 39.693 16.5591C39.693 16.5591 39.693 16.5517 39.693 16.5371V15.2611C39.693 15.2464 39.693 15.2391 39.693 15.2391C39.693 15.2391 39.7003 15.2391 39.715 15.2391ZM41.915 15.2391H43.191C43.2056 15.2391 43.213 15.2391 43.213 15.2391C43.213 15.2391 43.213 15.2464 43.213 15.2611V16.5371C43.213 16.5517 43.213 16.5591 43.213 16.5591C43.213 16.5591 43.2056 16.5591 43.191 16.5591H41.915C41.9003 16.5591 41.893 16.5591 41.893 16.5591C41.893 16.5591 41.893 16.5517 41.893 16.5371V15.2611C41.893 15.2464 41.893 15.2391 41.893 15.2391C41.893 15.2391 41.9003 15.2391 41.915 15.2391ZM44.115 15.2391H45.391C45.4056 15.2391 45.413 15.2391 45.413 15.2391C45.413 15.2391 45.413 15.2464 45.413 15.2611V16.5371C45.413 16.5517 45.413 16.5591 45.413 16.5591C45.413 16.5591 45.4056 16.5591 45.391 16.5591H44.115C44.1003 16.5591 44.093 16.5591 44.093 16.5591C44.093 16.5591 44.093 16.5517 44.093 16.5371V15.2611C44.093 15.2464 44.093 15.2391 44.093 15.2391C44.093 15.2391 44.1003 15.2391 44.115 15.2391ZM37.515 17.4391H38.791C38.8056 17.4391 38.813 17.4391 38.813 17.4391C38.813 17.4391 38.813 17.4464 38.813 17.4611V18.7371C38.813 18.7517 38.813 18.7591 38.813 18.7591C38.813 18.7591 38.8056 18.7591 38.791 18.7591H37.515C37.5003 18.7591 37.493 18.7591 37.493 18.7591C37.493 18.7591 37.493 18.7517 37.493 18.7371V17.4611C37.493 17.4464 37.493 17.4391 37.493 17.4391C37.493 17.4391 37.5003 17.4391 37.515 17.4391ZM41.915 17.4391H43.191C43.2056 17.4391 43.213 17.4391 43.213 17.4391C43.213 17.4391 43.213 17.4464 43.213 17.4611V18.7371C43.213 18.7517 43.213 18.7591 43.213 18.7591C43.213 18.7591 43.2056 18.7591 43.191 18.7591H41.915C41.9003 18.7591 41.893 18.7591 41.893 18.7591C41.893 18.7591 41.893 18.7517 41.893 18.7371V17.4611C41.893 17.4464 41.893 17.4391 41.893 17.4391C41.893 17.4391 41.9003 17.4391 41.915 17.4391ZM39.715 19.6391H40.991C41.0056 19.6391 41.013 19.6391 41.013 19.6391C41.013 19.6391 41.013 19.6464 41.013 19.6611V20.9371C41.013 20.9517 41.013 20.9591 41.013 20.9591C41.013 20.9591 41.0056 20.9591 40.991 20.9591H39.715C39.7003 20.9591 39.693 20.9591 39.693 20.9591C39.693 20.9591 39.693 20.9517 39.693 20.9371V19.6611C39.693 19.6464 39.693 19.6391 39.693 19.6391C39.693 19.6391 39.7003 19.6391 39.715 19.6391ZM41.915 19.6391H43.191C43.2056 19.6391 43.213 19.6391 43.213 19.6391C43.213 19.6391 43.213 19.6464 43.213 19.6611V20.9371C43.213 20.9517 43.213 20.9591 43.213 20.9591C43.213 20.9591 43.2056 20.9591 43.191 20.9591H41.915C41.9003 20.9591 41.893 20.9591 41.893 20.9591C41.893 20.9591 41.893 20.9517 41.893 20.9371V19.6611C41.893 19.6464 41.893 19.6391 41.893 19.6391C41.893 19.6391 41.9003 19.6391 41.915 19.6391ZM44.115 19.6391H45.391C45.4056 19.6391 45.413 19.6391 45.413 19.6391C45.413 19.6391 45.413 19.6464 45.413 19.6611V20.9371C45.413 20.9517 45.413 20.9591 45.413 20.9591C45.413 20.9591 45.4056 20.9591 45.391 20.9591H44.115C44.1003 20.9591 44.093 20.9591 44.093 20.9591C44.093 20.9591 44.093 20.9517 44.093 20.9371V19.6611C44.093 19.6464 44.093 19.6391 44.093 19.6391C44.093 19.6391 44.1003 19.6391 44.115 19.6391ZM41.915 21.8391H43.191C43.2056 21.8391 43.213 21.8391 43.213 21.8391C43.213 21.8391 43.213 21.8464 43.213 21.8611V23.1371C43.213 23.1517 43.213 23.1591 43.213 23.1591C43.213 23.1591 43.2056 23.1591 43.191 23.1591H41.915C41.9003 23.1591 41.893 23.1591 41.893 23.1591C41.893 23.1591 41.893 23.1517 41.893 23.1371V21.8611C41.893 21.8464 41.893 21.8391 41.893 21.8391C41.893 21.8391 41.9003 21.8391 41.915 21.8391ZM46.315 21.8391H47.591C47.6056 21.8391 47.613 21.8391 47.613 21.8391C47.613 21.8391 47.613 21.8464 47.613 21.8611V23.1371C47.613 23.1517 47.613 23.1591 47.613 23.1591C47.613 23.1591 47.6056 23.1591 47.591 23.1591H46.315C46.3003 23.1591 46.293 23.1591 46.293 23.1591C46.293 23.1591 46.293 23.1517 46.293 23.1371V21.8611C46.293 21.8464 46.293 21.8391 46.293 21.8391C46.293 21.8391 46.3003 21.8391 46.315 21.8391ZM39.715 24.0391H40.991C41.0056 24.0391 41.013 24.0391 41.013 24.0391C41.013 24.0391 41.013 24.0464 41.013 24.0611V25.3371C41.013 25.3517 41.013 25.3591 41.013 25.3591C41.013 25.3591 41.0056 25.3591 40.991 25.3591H39.715C39.7003 25.3591 39.693 25.3591 39.693 25.3591C39.693 25.3591 39.693 25.3517 39.693 25.3371V24.0611C39.693 24.0464 39.693 24.0391 39.693 24.0391C39.693 24.0391 39.7003 24.0391 39.715 24.0391ZM41.915 24.0391H43.191C43.2056 24.0391 43.213 24.0391 43.213 24.0391C43.213 24.0391 43.213 24.0464 43.213 24.0611V25.3371C43.213 25.3517 43.213 25.3591 43.213 25.3591C43.213 25.3591 43.2056 25.3591 43.191 25.3591H41.915C41.9003 25.3591 41.893 25.3591 41.893 25.3591C41.893 25.3591 41.893 25.3517 41.893 25.3371V24.0611C41.893 24.0464 41.893 24.0391 41.893 24.0391C41.893 24.0391 41.9003 24.0391 41.915 24.0391ZM44.115 24.0391H45.391C45.4056 24.0391 45.413 24.0391 45.413 24.0391C45.413 24.0391 45.413 24.0464 45.413 24.0611V25.3371C45.413 25.3517 45.413 25.3591 45.413 25.3591C45.413 25.3591 45.4056 25.3591 45.391 25.3591H44.115C44.1003 25.3591 44.093 25.3591 44.093 25.3591C44.093 25.3591 44.093 25.3517 44.093 25.3371V24.0611C44.093 24.0464 44.093 24.0391 44.093 24.0391C44.093 24.0391 44.1003 24.0391 44.115 24.0391ZM41.915 26.2391H43.191C43.2056 26.2391 43.213 26.2391 43.213 26.2391C43.213 26.2391 43.213 26.2464 43.213 26.2611V27.5371C43.213 27.5517 43.213 27.5591 43.213 27.5591C43.213 27.5591 43.2056 27.5591 43.191 27.5591H41.915C41.9003 27.5591 41.893 27.5591 41.893 27.5591C41.893 27.5591 41.893 27.5517 41.893 27.5371V26.2611C41.893 26.2464 41.893 26.2391 41.893 26.2391C41.893 26.2391 41.9003 26.2391 41.915 26.2391Z" fill="black"/>
<path opacity="0.4" d="M19.108 34.0215H20.384C20.3986 34.0215 20.406 34.0215 20.406 34.0215C20.406 34.0215 20.406 34.0288 20.406 34.0435V35.3195C20.406 35.3342 20.406 35.3415 20.406 35.3415C20.406 35.3415 20.3986 35.3415 20.384 35.3415H19.108C19.0933 35.3415 19.086 35.3415 19.086 35.3415C19.086 35.3415 19.086 35.3342 19.086 35.3195V34.0435C19.086 34.0288 19.086 34.0215 19.086 34.0215C19.086 34.0215 19.0933 34.0215 19.108 34.0215ZM21.308 34.0215H22.584C22.5986 34.0215 22.606 34.0215 22.606 34.0215C22.606 34.0215 22.606 34.0288 22.606 34.0435V35.3195C22.606 35.3342 22.606 35.3415 22.606 35.3415C22.606 35.3415 22.5986 35.3415 22.584 35.3415H21.308C21.2933 35.3415 21.286 35.3415 21.286 35.3415C21.286 35.3415 21.286 35.3342 21.286 35.3195V34.0435C21.286 34.0288 21.286 34.0215 21.286 34.0215C21.286 34.0215 21.2933 34.0215 21.308 34.0215ZM16.908 36.2215H18.184C18.1986 36.2215 18.206 36.2215 18.206 36.2215C18.206 36.2215 18.206 36.2288 18.206 36.2435V37.5195C18.206 37.5342 18.206 37.5415 18.206 37.5415C18.206 37.5415 18.1986 37.5415 18.184 37.5415H16.908C16.8933 37.5415 16.886 37.5415 16.886 37.5415C16.886 37.5415 16.886 37.5342 16.886 37.5195V36.2435C16.886 36.2288 16.886 36.2215 16.886 36.2215C16.886 36.2215 16.8933 36.2215 16.908 36.2215ZM23.508 36.2215H24.784C24.7986 36.2215 24.806 36.2215 24.806 36.2215C24.806 36.2215 24.806 36.2288 24.806 36.2435V37.5195C24.806 37.5342 24.806 37.5415 24.806 37.5415C24.806 37.5415 24.7986 37.5415 24.784 37.5415H23.508C23.4933 37.5415 23.486 37.5415 23.486 37.5415C23.486 37.5415 23.486 37.5342 23.486 37.5195V36.2435C23.486 36.2288 23.486 36.2215 23.486 36.2215C23.486 36.2215 23.4933 36.2215 23.508 36.2215ZM14.708 38.4215H15.984C15.9986 38.4215 16.006 38.4215 16.006 38.4215C16.006 38.4215 16.006 38.4288 16.006 38.4435V39.7195C16.006 39.7342 16.006 39.7415 16.006 39.7415C16.006 39.7415 15.9986 39.7415 15.984 39.7415H14.708C14.6933 39.7415 14.686 39.7415 14.686 39.7415C14.686 39.7415 14.686 39.7342 14.686 39.7195V38.4435C14.686 38.4288 14.686 38.4215 14.686 38.4215C14.686 38.4215 14.6933 38.4215 14.708 38.4215ZM16.908 38.4215H18.184C18.1986 38.4215 18.206 38.4215 18.206 38.4215C18.206 38.4215 18.206 38.4288 18.206 38.4435V39.7195C18.206 39.7342 18.206 39.7415 18.206 39.7415C18.206 39.7415 18.1986 39.7415 18.184 39.7415H16.908C16.8933 39.7415 16.886 39.7415 16.886 39.7415C16.886 39.7415 16.886 39.7342 16.886 39.7195V38.4435C16.886 38.4288 16.886 38.4215 16.886 38.4215C16.886 38.4215 16.8933 38.4215 16.908 38.4215ZM19.108 38.4215H20.384C20.3986 38.4215 20.406 38.4215 20.406 38.4215C20.406 38.4215 20.406 38.4288 20.406 38.4435V39.7195C20.406 39.7342 20.406 39.7415 20.406 39.7415C20.406 39.7415 20.3986 39.7415 20.384 39.7415H19.108C19.0933 39.7415 19.086 39.7415 19.086 39.7415C19.086 39.7415 19.086 39.7342 19.086 39.7195V38.4435C19.086 38.4288 19.086 38.4215 19.086 38.4215C19.086 38.4215 19.0933 38.4215 19.108 38.4215ZM16.908 40.6215H18.184C18.1986 40.6215 18.206 40.6215 18.206 40.6215C18.206 40.6215 18.206 40.6288 18.206 40.6435V41.9195C18.206 41.9342 18.206 41.9415 18.206 41.9415C18.206 41.9415 18.1986 41.9415 18.184 41.9415H16.908C16.8933 41.9415 16.886 41.9415 16.886 41.9415C16.886 41.9415 16.886 41.9342 16.886 41.9195V40.6435C16.886 40.6288 16.886 40.6215 16.886 40.6215C16.886 40.6215 16.8933 40.6215 16.908 40.6215ZM14.708 42.8215H15.984C15.9986 42.8215 16.006 42.8215 16.006 42.8215C16.006 42.8215 16.006 42.8288 16.006 42.8435V44.1195C16.006 44.1342 16.006 44.1415 16.006 44.1415C16.006 44.1415 15.9986 44.1415 15.984 44.1415H14.708C14.6933 44.1415 14.686 44.1415 14.686 44.1415C14.686 44.1415 14.686 44.1342 14.686 44.1195V42.8435C14.686 42.8288 14.686 42.8215 14.686 42.8215C14.686 42.8215 14.6933 42.8215 14.708 42.8215ZM16.908 42.8215H18.184C18.1986 42.8215 18.206 42.8215 18.206 42.8215C18.206 42.8215 18.206 42.8288 18.206 42.8435V44.1195C18.206 44.1342 18.206 44.1415 18.206 44.1415C18.206 44.1415 18.1986 44.1415 18.184 44.1415H16.908C16.8933 44.1415 16.886 44.1415 16.886 44.1415C16.886 44.1415 16.886 44.1342 16.886 44.1195V42.8435C16.886 42.8288 16.886 42.8215 16.886 42.8215C16.886 42.8215 16.8933 42.8215 16.908 42.8215ZM19.108 42.8215H20.384C20.3986 42.8215 20.406 42.8215 20.406 42.8215C20.406 42.8215 20.406 42.8288 20.406 42.8435V44.1195C20.406 44.1342 20.406 44.1415 20.406 44.1415C20.406 44.1415 20.3986 44.1415 20.384 44.1415H19.108C19.0933 44.1415 19.086 44.1415 19.086 44.1415C19.086 44.1415 19.086 44.1342 19.086 44.1195V42.8435C19.086 42.8288 19.086 42.8215 19.086 42.8215C19.086 42.8215 19.0933 42.8215 19.108 42.8215ZM16.908 45.0215H18.184C18.1986 45.0215 18.206 45.0215 18.206 45.0215C18.206 45.0215 18.206 45.0288 18.206 45.0435V46.3195C18.206 46.3342 18.206 46.3415 18.206 46.3415C18.206 46.3415 18.1986 46.3415 18.184 46.3415H16.908C16.8933 46.3415 16.886 46.3415 16.886 46.3415C16.886 46.3415 16.886 46.3342 16.886 46.3195V45.0435C16.886 45.0288 16.886 45.0215 16.886 45.0215C16.886 45.0215 16.8933 45.0215 16.908 45.0215ZM23.508 45.0215H24.784C24.7986 45.0215 24.806 45.0215 24.806 45.0215C24.806 45.0215 24.806 45.0288 24.806 45.0435V46.3195C24.806 46.3342 24.806 46.3415 24.806 46.3415C24.806 46.3415 24.7986 46.3415 24.784 46.3415H23.508C23.4933 46.3415 23.486 46.3415 23.486 46.3415C23.486 46.3415 23.486 46.3342 23.486 46.3195V45.0435C23.486 45.0288 23.486 45.0215 23.486 45.0215C23.486 45.0215 23.4933 45.0215 23.508 45.0215ZM19.108 47.2215H20.384C20.3986 47.2215 20.406 47.2215 20.406 47.2215C20.406 47.2215 20.406 47.2288 20.406 47.2435V48.5195C20.406 48.5342 20.406 48.5415 20.406 48.5415C20.406 48.5415 20.3986 48.5415 20.384 48.5415H19.108C19.0933 48.5415 19.086 48.5415 19.086 48.5415C19.086 48.5415 19.086 48.5342 19.086 48.5195V47.2435C19.086 47.2288 19.086 47.2215 19.086 47.2215C19.086 47.2215 19.0933 47.2215 19.108 47.2215ZM21.308 47.2215H22.584C22.5986 47.2215 22.606 47.2215 22.606 47.2215C22.606 47.2215 22.606 47.2288 22.606 47.2435V48.5195C22.606 48.5342 22.606 48.5415 22.606 48.5415C22.606 48.5415 22.5986 48.5415 22.584 48.5415H21.308C21.2933 48.5415 21.286 48.5415 21.286 48.5415C21.286 48.5415 21.286 48.5342 21.286 48.5195V47.2435C21.286 47.2288 21.286 47.2215 21.286 47.2215C21.286 47.2215 21.2933 47.2215 21.308 47.2215Z" fill="black"/>
<g opacity="0.4">
<path d="M31.0008 34.7537H32.1649C32.1782 34.7537 32.1849 34.7537 32.1849 34.7537C32.1849 34.7537 32.1849 34.7604 32.1849 34.7738V35.9378C32.1849 35.9512 32.1849 35.9579 32.1849 35.9579C32.1849 35.9579 32.1782 35.9579 32.1649 35.9579H31.0008C30.9874 35.9579 30.9807 35.9579 30.9807 35.9579C30.9807 35.9579 30.9807 35.9512 30.9807 35.9378V34.7738C30.9807 34.7604 30.9807 34.7537 30.9807 34.7537C30.9807 34.7537 30.9874 34.7537 31.0008 34.7537ZM33.0078 34.7537H34.1719C34.1852 34.7537 34.1919 34.7537 34.1919 34.7537C34.1919 34.7537 34.1919 34.7604 34.1919 34.7738V35.9378C34.1919 35.9512 34.1919 35.9579 34.1919 35.9579C34.1919 35.9579 34.1852 35.9579 34.1719 35.9579H33.0078C32.9944 35.9579 32.9877 35.9579 32.9877 35.9579C32.9877 35.9579 32.9877 35.9512 32.9877 35.9378V34.7738C32.9877 34.7604 32.9877 34.7537 32.9877 34.7537C32.9877 34.7537 32.9944 34.7537 33.0078 34.7537ZM35.0148 34.7537H36.1789C36.1923 34.7537 36.199 34.7537 36.199 34.7537C36.199 34.7537 36.199 34.7604 36.199 34.7738V35.9378C36.199 35.9512 36.199 35.9579 36.199 35.9579C36.199 35.9579 36.1923 35.9579 36.1789 35.9579H35.0148C35.0014 35.9579 34.9947 35.9579 34.9947 35.9579C34.9947 35.9579 34.9947 35.9512 34.9947 35.9378V34.7738C34.9947 34.7604 34.9947 34.7537 34.9947 34.7537C34.9947 34.7537 35.0014 34.7537 35.0148 34.7537ZM37.0218 34.7537H38.1859C38.1993 34.7537 38.206 34.7537 38.206 34.7537C38.206 34.7537 38.206 34.7604 38.206 34.7738V35.9378C38.206 35.9512 38.206 35.9579 38.206 35.9579C38.206 35.9579 38.1993 35.9579 38.1859 35.9579H37.0218C37.0084 35.9579 37.0018 35.9579 37.0018 35.9579C37.0018 35.9579 37.0018 35.9512 37.0018 35.9378V34.7738C37.0018 34.7604 37.0018 34.7537 37.0018 34.7537C37.0018 34.7537 37.0084 34.7537 37.0218 34.7537ZM33.0078 36.7607H34.1719C34.1852 36.7607 34.1919 36.7607 34.1919 36.7607C34.1919 36.7607 34.1919 36.7674 34.1919 36.7808V37.9449C34.1919 37.9582 34.1919 37.9649 34.1919 37.9649C34.1919 37.9649 34.1852 37.9649 34.1719 37.9649H33.0078C32.9944 37.9649 32.9877 37.9649 32.9877 37.9649C32.9877 37.9649 32.9877 37.9582 32.9877 37.9449V36.7808C32.9877 36.7674 32.9877 36.7607 32.9877 36.7607C32.9877 36.7607 32.9944 36.7607 33.0078 36.7607ZM39.0288 36.7607H40.1929C40.2063 36.7607 40.213 36.7607 40.213 36.7607C40.213 36.7607 40.213 36.7674 40.213 36.7808V37.9449C40.213 37.9582 40.213 37.9649 40.213 37.9649C40.213 37.9649 40.2063 37.9649 40.1929 37.9649H39.0288C39.0155 37.9649 39.0088 37.9649 39.0088 37.9649C39.0088 37.9649 39.0088 37.9582 39.0088 37.9449V36.7808C39.0088 36.7674 39.0088 36.7607 39.0088 36.7607C39.0088 36.7607 39.0155 36.7607 39.0288 36.7607ZM33.0078 38.7677H34.1719C34.1852 38.7677 34.1919 38.7677 34.1919 38.7677C34.1919 38.7677 34.1919 38.7744 34.1919 38.7878V39.9519C34.1919 39.9652 34.1919 39.9719 34.1919 39.9719C34.1919 39.9719 34.1852 39.9719 34.1719 39.9719H33.0078C32.9944 39.9719 32.9877 39.9719 32.9877 39.9719C32.9877 39.9719 32.9877 39.9652 32.9877 39.9519V38.7878C32.9877 38.7744 32.9877 38.7677 32.9877 38.7677C32.9877 38.7677 32.9944 38.7677 33.0078 38.7677ZM39.0288 38.7677H40.1929C40.2063 38.7677 40.213 38.7677 40.213 38.7677C40.213 38.7677 40.213 38.7744 40.213 38.7878V39.9519C40.213 39.9652 40.213 39.9719 40.213 39.9719C40.213 39.9719 40.2063 39.9719 40.1929 39.9719H39.0288C39.0155 39.9719 39.0088 39.9719 39.0088 39.9719C39.0088 39.9719 39.0088 39.9652 39.0088 39.9519V38.7878C39.0088 38.7744 39.0088 38.7677 39.0088 38.7677C39.0088 38.7677 39.0155 38.7677 39.0288 38.7677ZM33.0078 40.7747H34.1719C34.1852 40.7747 34.1919 40.7747 34.1919 40.7747C34.1919 40.7747 34.1919 40.7814 34.1919 40.7948V41.9589C34.1919 41.9723 34.1919 41.979 34.1919 41.979C34.1919 41.979 34.1852 41.979 34.1719 41.979H33.0078C32.9944 41.979 32.9877 41.979 32.9877 41.979C32.9877 41.979 32.9877 41.9723 32.9877 41.9589V40.7948C32.9877 40.7814 32.9877 40.7747 32.9877 40.7747C32.9877 40.7747 32.9944 40.7747 33.0078 40.7747ZM35.0148 40.7747H36.1789C36.1923 40.7747 36.199 40.7747 36.199 40.7747C36.199 40.7747 36.199 40.7814 36.199 40.7948V41.9589C36.199 41.9723 36.199 41.979 36.199 41.979C36.199 41.979 36.1923 41.979 36.1789 41.979H35.0148C35.0014 41.979 34.9947 41.979 34.9947 41.979C34.9947 41.979 34.9947 41.9723 34.9947 41.9589V40.7948C34.9947 40.7814 34.9947 40.7747 34.9947 40.7747C34.9947 40.7747 35.0014 40.7747 35.0148 40.7747ZM37.0218 40.7747H38.1859C38.1993 40.7747 38.206 40.7747 38.206 40.7747C38.206 40.7747 38.206 40.7814 38.206 40.7948V41.9589C38.206 41.9723 38.206 41.979 38.206 41.979C38.206 41.979 38.1993 41.979 38.1859 41.979H37.0218C37.0084 41.979 37.0018 41.979 37.0018 41.979C37.0018 41.979 37.0018 41.9723 37.0018 41.9589V40.7948C37.0018 40.7814 37.0018 40.7747 37.0018 40.7747C37.0018 40.7747 37.0084 40.7747 37.0218 40.7747ZM33.0078 42.7818H34.1719C34.1852 42.7818 34.1919 42.7818 34.1919 42.7818C34.1919 42.7818 34.1919 42.7884 34.1919 42.8018V43.9659C34.1919 43.9793 34.1919 43.986 34.1919 43.986C34.1919 43.986 34.1852 43.986 34.1719 43.986H33.0078C32.9944 43.986 32.9877 43.986 32.9877 43.986C32.9877 43.986 32.9877 43.9793 32.9877 43.9659V42.8018C32.9877 42.7884 32.9877 42.7818 32.9877 42.7818C32.9877 42.7818 32.9944 42.7818 33.0078 42.7818ZM39.0288 42.7818H40.1929C40.2063 42.7818 40.213 42.7818 40.213 42.7818C40.213 42.7818 40.213 42.7884 40.213 42.8018V43.9659C40.213 43.9793 40.213 43.986 40.213 43.986C40.213 43.986 40.2063 43.986 40.1929 43.986H39.0288C39.0155 43.986 39.0088 43.986 39.0088 43.986C39.0088 43.986 39.0088 43.9793 39.0088 43.9659V42.8018C39.0088 42.7884 39.0088 42.7818 39.0088 42.7818C39.0088 42.7818 39.0155 42.7818 39.0288 42.7818ZM33.0078 44.7888H34.1719C34.1852 44.7888 34.1919 44.7888 34.1919 44.7888C34.1919 44.7888 34.1919 44.7955 34.1919 44.8088V45.9729C34.1919 45.9863 34.1919 45.993 34.1919 45.993C34.1919 45.993 34.1852 45.993 34.1719 45.993H33.0078C32.9944 45.993 32.9877 45.993 32.9877 45.993C32.9877 45.993 32.9877 45.9863 32.9877 45.9729V44.8088C32.9877 44.7955 32.9877 44.7888 32.9877 44.7888C32.9877 44.7888 32.9944 44.7888 33.0078 44.7888ZM39.0288 44.7888H40.1929C40.2063 44.7888 40.213 44.7888 40.213 44.7888C40.213 44.7888 40.213 44.7955 40.213 44.8088V45.9729C40.213 45.9863 40.213 45.993 40.213 45.993C40.213 45.993 40.2063 45.993 40.1929 45.993H39.0288C39.0155 45.993 39.0088 45.993 39.0088 45.993C39.0088 45.993 39.0088 45.9863 39.0088 45.9729V44.8088C39.0088 44.7955 39.0088 44.7888 39.0088 44.7888C39.0088 44.7888 39.0155 44.7888 39.0288 44.7888ZM31.0008 46.7958H32.1649C32.1782 46.7958 32.1849 46.7958 32.1849 46.7958C32.1849 46.7958 32.1849 46.8025 32.1849 46.8159V47.9799C32.1849 47.9933 32.1849 48 32.1849 48C32.1849 48 32.1782 48 32.1649 48H31.0008C30.9874 48 30.9807 48 30.9807 48C30.9807 48 30.9807 47.9933 30.9807 47.9799V46.8159C30.9807 46.8025 30.9807 46.7958 30.9807 46.7958C30.9807 46.7958 30.9874 46.7958 31.0008 46.7958ZM33.0078 46.7958H34.1719C34.1852 46.7958 34.1919 46.7958 34.1919 46.7958C34.1919 46.7958 34.1919 46.8025 34.1919 46.8159V47.9799C34.1919 47.9933 34.1919 48 34.1919 48C34.1919 48 34.1852 48 34.1719 48H33.0078C32.9944 48 32.9877 48 32.9877 48C32.9877 48 32.9877 47.9933 32.9877 47.9799V46.8159C32.9877 46.8025 32.9877 46.7958 32.9877 46.7958C32.9877 46.7958 32.9944 46.7958 33.0078 46.7958ZM35.0148 46.7958H36.1789C36.1923 46.7958 36.199 46.7958 36.199 46.7958C36.199 46.7958 36.199 46.8025 36.199 46.8159V47.9799C36.199 47.9933 36.199 48 36.199 48C36.199 48 36.1923 48 36.1789 48H35.0148C35.0014 48 34.9947 48 34.9947 48C34.9947 48 34.9947 47.9933 34.9947 47.9799V46.8159C34.9947 46.8025 34.9947 46.7958 34.9947 46.7958C34.9947 46.7958 35.0014 46.7958 35.0148 46.7958ZM37.0218 46.7958H38.1859C38.1993 46.7958 38.206 46.7958 38.206 46.7958C38.206 46.7958 38.206 46.8025 38.206 46.8159V47.9799C38.206 47.9933 38.206 48 38.206 48C38.206 48 38.1993 48 38.1859 48H37.0218C37.0084 48 37.0018 48 37.0018 48C37.0018 48 37.0018 47.9933 37.0018 47.9799V46.8159C37.0018 46.8025 37.0018 46.7958 37.0018 46.7958C37.0018 46.7958 37.0084 46.7958 37.0218 46.7958Z" fill="black"/>
<path d="M42.6274 38.7677H43.7915C43.8049 38.7677 43.8115 38.7677 43.8115 38.7677C43.8115 38.7677 43.8115 38.7744 43.8115 38.7878V39.9519C43.8115 39.9652 43.8115 39.9719 43.8115 39.9719C43.8115 39.9719 43.8049 39.9719 43.7915 39.9719H42.6274C42.614 39.9719 42.6073 39.9719 42.6073 39.9719C42.6073 39.9719 42.6073 39.9652 42.6073 39.9519V38.7878C42.6073 38.7744 42.6073 38.7677 42.6073 38.7677C42.6073 38.7677 42.614 38.7677 42.6274 38.7677ZM46.6414 38.7677H47.8055C47.8189 38.7677 47.8256 38.7677 47.8256 38.7677C47.8256 38.7677 47.8256 38.7744 47.8256 38.7878V39.9519C47.8256 39.9652 47.8256 39.9719 47.8256 39.9719C47.8256 39.9719 47.8189 39.9719 47.8055 39.9719H46.6414C46.6281 39.9719 46.6214 39.9719 46.6214 39.9719C46.6214 39.9719 46.6214 39.9652 46.6214 39.9519V38.7878C46.6214 38.7744 46.6214 38.7677 46.6214 38.7677C46.6214 38.7677 46.6281 38.7677 46.6414 38.7677ZM42.6274 40.7747H43.7915C43.8049 40.7747 43.8115 40.7747 43.8115 40.7747C43.8115 40.7747 43.8115 40.7814 43.8115 40.7948V41.9589C43.8115 41.9723 43.8115 41.979 43.8115 41.979C43.8115 41.979 43.8049 41.979 43.7915 41.979H42.6274C42.614 41.979 42.6073 41.979 42.6073 41.979C42.6073 41.979 42.6073 41.9723 42.6073 41.9589V40.7948C42.6073 40.7814 42.6073 40.7747 42.6073 40.7747C42.6073 40.7747 42.614 40.7747 42.6274 40.7747ZM44.6344 40.7747H45.7985C45.8119 40.7747 45.8186 40.7747 45.8186 40.7747C45.8186 40.7747 45.8186 40.7814 45.8186 40.7948V41.9589C45.8186 41.9723 45.8186 41.979 45.8186 41.979C45.8186 41.979 45.8119 41.979 45.7985 41.979H44.6344C44.621 41.979 44.6143 41.979 44.6143 41.979C44.6143 41.979 44.6143 41.9723 44.6143 41.9589V40.7948C44.6143 40.7814 44.6143 40.7747 44.6143 40.7747C44.6143 40.7747 44.621 40.7747 44.6344 40.7747ZM42.6274 42.7818H43.7915C43.8049 42.7818 43.8115 42.7818 43.8115 42.7818C43.8115 42.7818 43.8115 42.7884 43.8115 42.8018V43.9659C43.8115 43.9793 43.8115 43.986 43.8115 43.986C43.8115 43.986 43.8049 43.986 43.7915 43.986H42.6274C42.614 43.986 42.6073 43.986 42.6073 43.986C42.6073 43.986 42.6073 43.9793 42.6073 43.9659V42.8018C42.6073 42.7884 42.6073 42.7818 42.6073 42.7818C42.6073 42.7818 42.614 42.7818 42.6274 42.7818ZM42.6274 44.7888H43.7915C43.8049 44.7888 43.8115 44.7888 43.8115 44.7888C43.8115 44.7888 43.8115 44.7955 43.8115 44.8088V45.9729C43.8115 45.9863 43.8115 45.993 43.8115 45.993C43.8115 45.993 43.8049 45.993 43.7915 45.993H42.6274C42.614 45.993 42.6073 45.993 42.6073 45.993C42.6073 45.993 42.6073 45.9863 42.6073 45.9729V44.8088C42.6073 44.7955 42.6073 44.7888 42.6073 44.7888C42.6073 44.7888 42.614 44.7888 42.6274 44.7888ZM42.6274 46.7958H43.7915C43.8049 46.7958 43.8115 46.7958 43.8115 46.7958C43.8115 46.7958 43.8115 46.8025 43.8115 46.8159V47.9799C43.8115 47.9933 43.8115 48 43.8115 48C43.8115 48 43.8049 48 43.7915 48H42.6274C42.614 48 42.6073 48 42.6073 48C42.6073 48 42.6073 47.9933 42.6073 47.9799V46.8159C42.6073 46.8025 42.6073 46.7958 42.6073 46.7958C42.6073 46.7958 42.614 46.7958 42.6274 46.7958Z" fill="black"/>
</g>
</g>
<defs>
<clipPath id="clip0_4007_26336">
<rect width="60" height="60" fill="white"/>
</clipPath>
</defs>
</svg>
